<svg width="390" height="49" viewBox="0 0 390 49" fill="none" xmlns="http://www.w3.org/2000/svg">
<rect width="390" height="49" rx="5" fill="#4285F4"/>
<rect x="3.125" y="3" width="44.7551" height="43" rx="3" fill="white"/>
<path d="M42.5705 24.8883C42.5705 23.6772 42.4574 22.5126 42.2473 21.3946H25.5039V28.0017H35.0716C34.6594 30.1367 33.4069 31.9457 31.5241 33.1569V37.4426H37.2695C40.6311 34.469 42.5705 30.0901 42.5705 24.8883Z" fill="#4285F4"/>
<path d="M25.504 41.5807C30.304 41.5807 34.3282 40.0512 37.2696 37.4426L31.5242 33.1569C29.9323 34.1817 27.8959 34.7873 25.504 34.7873C20.8737 34.7873 16.9545 31.7827 15.5566 27.7455H9.61719V32.1709C12.5424 37.7531 18.5545 41.5807 25.504 41.5807Z" fill="#34A853"/>
<path d="M15.5568 27.7454C15.2013 26.7206 14.9993 25.6259 14.9993 24.5001C14.9993 23.3744 15.2013 22.2797 15.5568 21.2548V16.8294H9.61747C8.41343 19.1353 7.72656 21.7439 7.72656 24.5001C7.72656 27.2563 8.41343 29.865 9.61747 32.1709L15.5568 27.7454Z" fill="#FBBC05"/>
<path d="M25.504 14.213C28.1141 14.213 30.4575 15.0748 32.2999 16.7673L37.3989 11.8683C34.3201 9.11214 30.2959 7.41962 25.504 7.41962C18.5545 7.41962 12.5424 11.2472 9.61719 16.8294L15.5566 21.2549C16.9545 17.2176 20.8737 14.213 25.504 14.213Z" fill="#EA4335"/>
<path d="M178.445 19.3666H169.516V17.9681H178.445V19.3666ZM180.859 25.4056H168V23.9916H180.859V25.4056ZM175.25 31.2494H173.5V24.9681H175.25V31.2494ZM179.289 19.226C179.289 19.9187 179.279 20.5124 179.258 21.0072C179.242 21.502 179.193 22.0749 179.109 22.726C179.031 23.377 178.906 24.0827 178.734 24.8431L177.016 24.6478C177.188 23.9239 177.312 23.2468 177.391 22.6166C177.469 21.9812 177.516 21.4213 177.531 20.9369C177.547 20.4525 177.555 19.8822 177.555 19.226V17.9681H179.289V19.226ZM192.492 19.0853H183.414V17.7025H192.492V19.0853ZM194.734 23.5697H181.828V22.2025H194.734V23.5697ZM193.148 18.6478C193.148 19.3614 193.128 20.015 193.086 20.6088C193.044 21.2025 192.94 21.8692 192.773 22.6088L191.055 22.4447C191.211 21.7155 191.31 21.0749 191.352 20.5228C191.393 19.9707 191.414 19.3457 191.414 18.6478V17.7025H193.148V18.6478ZM193.125 28.5228H185.055V30.1713H183.312V27.2103H191.406V26.0619H183.305V24.7103H193.125V28.5228ZM193.5 31.101H183.312V29.7416H193.5V31.101ZM212.375 29.5931H199.469V28.1635H212.375V29.5931ZM206.742 28.7728H205.031V25.3744H206.742V28.7728ZM210.836 22.6088H202.727V25.1713H200.992V21.2416H209.125V19.476H200.969V18.0697H210.836V22.6088ZM211.172 25.851H200.992V24.4369H211.172V25.851ZM223.719 19.89H214.648V18.476H223.719V19.89ZM226.156 29.2885H213.297V27.8744H226.156V29.2885ZM224.523 20.0775C224.523 20.9369 224.513 21.6635 224.492 22.2572C224.477 22.851 224.432 23.5411 224.359 24.3275C224.292 25.1088 224.177 25.9603 224.016 26.8822L222.242 26.7338C222.419 25.8692 222.547 25.0541 222.625 24.2885C222.708 23.5228 222.758 22.8379 222.773 22.2338C222.789 21.6244 222.797 20.9056 222.797 20.0775V18.476H224.523V20.0775ZM238.875 27.3275H237.133V17.1244H238.875V27.3275ZM239.273 30.9681H229.531V29.5463H239.273V30.9681ZM231.281 30.101H229.531V26.2963H231.281V30.101ZM231.18 18.0463C231.893 18.0463 232.539 18.1973 233.117 18.4994C233.701 18.8015 234.156 19.2207 234.484 19.7572C234.818 20.2937 234.984 20.8978 234.984 21.5697C234.984 22.2572 234.818 22.8718 234.484 23.4135C234.156 23.9499 233.701 24.3692 233.117 24.6713C232.539 24.9733 231.893 25.1244 231.18 25.1244C230.466 25.1244 229.82 24.9733 229.242 24.6713C228.669 24.3692 228.214 23.9499 227.875 23.4135C227.542 22.8718 227.375 22.2572 227.375 21.5697C227.375 20.8978 227.542 20.2937 227.875 19.7572C228.214 19.2207 228.669 18.8015 229.242 18.4994C229.82 18.1973 230.466 18.0463 231.18 18.0463ZM231.18 19.5697C230.779 19.5645 230.417 19.6452 230.094 19.8119C229.776 19.9733 229.526 20.2077 229.344 20.515C229.161 20.8223 229.07 21.1739 229.07 21.5697C229.07 21.976 229.161 22.3353 229.344 22.6478C229.526 22.9551 229.776 23.1921 230.094 23.3588C230.417 23.5202 230.779 23.601 231.18 23.601C231.576 23.601 231.932 23.5202 232.25 23.3588C232.568 23.1921 232.815 22.9551 232.992 22.6478C233.174 22.3353 233.266 21.976 233.266 21.5697C233.266 21.1739 233.174 20.8223 232.992 20.515C232.815 20.2077 232.568 19.9733 232.25 19.8119C231.932 19.6452 231.576 19.5645 231.18 19.5697Z" fill="white"/>
</svg>
