<svg width="47" height="47" viewBox="0 0 47 47" fill="none" xmlns="http://www.w3.org/2000/svg">
<rect width="47" height="47" fill="white"/>
<path d="M41.4227 23.9245C41.4227 22.6007 41.3039 21.3277 41.0832 20.1057H23.5V27.3274H33.5476C33.1148 29.6611 31.7994 31.6384 29.8222 32.9622V37.6465H35.8558C39.386 34.3964 41.4227 29.6102 41.4227 23.9245Z" fill="#4285F4"/>
<path d="M23.5001 42.1696C28.5408 42.1696 32.7669 40.4978 35.8559 37.6465L29.8223 32.9622C28.1505 34.0823 26.012 34.7443 23.5001 34.7443C18.6376 34.7443 14.5218 31.4601 13.0537 27.0474H6.81641V31.8844C9.88838 37.986 16.202 42.1696 23.5001 42.1696Z" fill="#34A853"/>
<path d="M13.0512 27.0474C12.6778 25.9272 12.4656 24.7307 12.4656 23.5002C12.4656 22.2697 12.6778 21.0732 13.0512 19.953V15.1159H6.81388C5.54944 17.6363 4.82812 20.4876 4.82812 23.5002C4.82812 26.5128 5.54944 29.3641 6.81388 31.8845L13.0512 27.0474Z" fill="#FBBC05"/>
<path d="M23.5001 12.2561C26.2411 12.2561 28.7021 13.1981 30.6369 15.048L35.9917 9.69329C32.7584 6.68072 28.5324 4.83075 23.5001 4.83075C16.202 4.83075 9.88838 9.0144 6.81641 15.1159L13.0537 19.953C14.5218 15.5402 18.6376 12.2561 23.5001 12.2561Z" fill="#EA4335"/>
</svg>
