<svg width="1016" height="397" viewBox="0 0 1016 397" fill="none" xmlns="http://www.w3.org/2000/svg">
<path d="M0 0H49.1321V163.689H153.169V0H201.764V390.652H153.169V206.772H49.1321V390.652H0V0Z" fill="white"/>
<path d="M413.595 272.072H315.331L290.497 390.585H243.982L332.246 0H397.755L485.951 390.652H438.43L413.595 272.14V272.072ZM405.138 232.23L392.453 172.198C382.921 128.642 373.994 86.0988 365.537 40.9223H363.457C355.536 86.0988 346.005 128.642 336.541 172.198L323.856 232.23H405.205H405.138Z" fill="white"/>
<path d="M691.474 390.652L621.736 225.343H583.679V390.652H534.01V0H618.514C687.178 0 735.773 29.2398 735.773 110.004C735.773 166.863 709.328 202.45 668.183 217.374L743.694 390.652H691.407H691.474ZM611.735 185.501C660.33 185.501 687.245 161.055 687.245 110.004C687.245 58.9524 660.33 40.382 611.735 40.382H583.746V185.501H611.735Z" fill="white"/>
<path d="M792.891 270.519V198.534H842.023V272.14C842.023 334.334 864.71 354.525 893.236 354.525C923.843 354.525 948.141 334.334 948.141 272.14V198.534H995.125V270.519C995.125 365.127 949.684 397 893.169 397C836.654 397 792.824 365.127 792.824 270.519H792.891Z" fill="white"/>
<path d="M824.439 162.338C851.981 162.338 874.309 139.875 874.309 112.165C874.309 84.4547 851.981 61.9911 824.439 61.9911C796.896 61.9911 774.568 84.4547 774.568 112.165C774.568 139.875 796.896 162.338 824.439 162.338Z" fill="white" stroke="#D7D7D7" stroke-width="0.72" stroke-linecap="round" stroke-linejoin="round"/>
<path d="M892.498 11.75C863.502 11.75 840.01 35.3849 840.01 64.5573C840.01 79.0084 845.782 92.0413 855.112 101.63C845.782 111.152 840.01 124.252 840.01 138.704C840.01 167.876 863.502 191.511 892.498 191.511C921.494 191.511 944.986 167.876 944.986 138.704V64.6248C944.986 35.4525 921.494 11.8175 892.498 11.8175V11.75Z" fill="white" stroke="#D7D7D7" stroke-width="0.72" stroke-linecap="round" stroke-linejoin="round"/>
<path d="M944.248 147.685C944.248 176.655 920.89 191.511 892.096 191.511C863.301 191.511 839.943 168.011 839.943 139.041C839.943 110.071 863.301 86.5715 892.096 86.5715" fill="white"/>
<path d="M944.248 147.685C944.248 176.655 920.89 191.511 892.096 191.511C863.301 191.511 839.943 168.011 839.943 139.041C839.943 110.071 863.301 86.5715 892.096 86.5715" stroke="#D7D7D7" stroke-width="0.72" stroke-linecap="round" stroke-linejoin="round"/>
<path d="M947.202 83.7353C975.997 83.7353 944.182 110.139 944.182 139.109Z" fill="white"/>
<path d="M947.202 83.7353C975.997 83.7353 944.182 110.139 944.182 139.109" stroke="#D7D7D7" stroke-width="0.72" stroke-linecap="round" stroke-linejoin="round"/>
<path d="M963.714 162.338C991.257 162.338 1013.58 139.875 1013.58 112.165C1013.58 84.4547 991.257 61.9911 963.714 61.9911C936.172 61.9911 913.844 84.4547 913.844 112.165C913.844 139.875 936.172 162.338 963.714 162.338Z" fill="white" stroke="#D7D7D7" stroke-width="0.72" stroke-linecap="round" stroke-linejoin="round"/>
</svg>
