<svg width="390" height="49" viewBox="0 0 390 49" fill="none" xmlns="http://www.w3.org/2000/svg">
<rect width="390" height="49" rx="5" fill="#4285F4"/>
<path d="M155.797 20.5234H146.867V19.125H155.797V20.5234ZM158.211 26.5625H145.352V25.1484H158.211V26.5625ZM152.602 32.4062H150.852V26.125H152.602V32.4062ZM156.641 20.3828C156.641 21.0755 156.63 21.6693 156.609 22.1641C156.594 22.6589 156.544 23.2318 156.461 23.8828C156.383 24.5339 156.258 25.2396 156.086 26L154.367 25.8047C154.539 25.0807 154.664 24.4036 154.742 23.7734C154.82 23.138 154.867 22.5781 154.883 22.0938C154.898 21.6094 154.906 21.0391 154.906 20.3828V19.125H156.641V20.3828ZM169.844 20.2422H160.766V18.8594H169.844V20.2422ZM172.086 24.7266H159.18V23.3594H172.086V24.7266ZM170.5 19.8047C170.5 20.5182 170.479 21.1719 170.438 21.7656C170.396 22.3594 170.292 23.026 170.125 23.7656L168.406 23.6016C168.562 22.8724 168.661 22.2318 168.703 21.6797C168.745 21.1276 168.766 20.5026 168.766 19.8047V18.8594H170.5V19.8047ZM170.477 29.6797H162.406V31.3281H160.664V28.3672H168.758V27.2188H160.656V25.8672H170.477V29.6797ZM170.852 32.2578H160.664V30.8984H170.852V32.2578ZM185.305 23.4766H182.312V22.0625H185.305V23.4766ZM185.266 27H182.227V25.5859H185.266V27ZM188.992 32.375H187.352V18.2656H188.992V32.375ZM186.07 31.7266H184.43V18.6094H186.07V31.7266ZM182.93 19.9922C182.93 21.3359 182.758 22.5755 182.414 23.7109C182.076 24.8411 181.518 25.8854 180.742 26.8438C179.971 27.8021 178.956 28.6562 177.695 29.4062L176.664 28.1719C177.747 27.5312 178.625 26.8203 179.297 26.0391C179.969 25.2578 180.464 24.3984 180.781 23.4609C181.099 22.5182 181.258 21.4766 181.258 20.3359V19.9922H182.93ZM181.859 21.3984H177.422V19.9922H181.859V21.3984ZM201.203 23.2031H198.328V21.7891H201.203V23.2031ZM202.469 26.6641H200.734V18.2656H202.469V26.6641ZM197.695 27.0156C198.695 27.0156 199.555 27.1224 200.273 27.3359C200.997 27.5443 201.552 27.8516 201.938 28.2578C202.323 28.6589 202.516 29.1406 202.516 29.7031C202.516 30.2656 202.323 30.7474 201.938 31.1484C201.552 31.5495 200.997 31.8542 200.273 32.0625C199.555 32.276 198.695 32.388 197.695 32.3984C196.706 32.388 195.849 32.276 195.125 32.0625C194.406 31.8542 193.852 31.5495 193.461 31.1484C193.076 30.7474 192.883 30.2656 192.883 29.7031C192.883 29.1406 193.076 28.6589 193.461 28.2578C193.852 27.8516 194.406 27.5443 195.125 27.3359C195.849 27.1224 196.706 27.0156 197.695 27.0156ZM197.695 28.3438C197.044 28.3438 196.487 28.3958 196.023 28.5C195.56 28.599 195.208 28.75 194.969 28.9531C194.729 29.1562 194.609 29.4062 194.609 29.7031C194.609 29.9844 194.729 30.2266 194.969 30.4297C195.208 30.6328 195.56 30.7891 196.023 30.8984C196.487 31.0026 197.044 31.0547 197.695 31.0547C198.357 31.0547 198.917 31.0026 199.375 30.8984C199.839 30.7891 200.188 30.6328 200.422 30.4297C200.661 30.2266 200.781 29.9844 200.781 29.7031C200.781 29.4062 200.661 29.1562 200.422 28.9531C200.188 28.75 199.839 28.599 199.375 28.5C198.917 28.3958 198.357 28.3438 197.695 28.3438ZM195.484 20.6953C195.484 21.5859 195.328 22.4271 195.016 23.2188C194.708 24.0052 194.255 24.6953 193.656 25.2891C193.062 25.8828 192.346 26.3281 191.508 26.625L190.602 25.2422C191.341 24.987 191.971 24.625 192.492 24.1562C193.013 23.6823 193.404 23.1458 193.664 22.5469C193.93 21.9479 194.062 21.3307 194.062 20.6953V19.6875H195.484V20.6953ZM195.828 20.6797C195.828 21.2682 195.953 21.8359 196.203 22.3828C196.458 22.9297 196.836 23.4219 197.336 23.8594C197.841 24.2917 198.445 24.6302 199.148 24.875L198.281 26.25C197.458 25.9688 196.758 25.5495 196.18 24.9922C195.602 24.4297 195.161 23.7786 194.859 23.0391C194.562 22.2943 194.414 21.5078 194.414 20.6797V19.6875H195.828V20.6797ZM198.758 20.5938H191.117V19.1797H198.758V20.5938ZM210.906 19.0547C211.896 19.0547 212.789 19.2214 213.586 19.5547C214.388 19.888 215.018 20.3594 215.477 20.9688C215.935 21.5729 216.164 22.2682 216.164 23.0547C216.164 23.8411 215.935 24.5391 215.477 25.1484C215.018 25.7578 214.388 26.2292 213.586 26.5625C212.789 26.8906 211.896 27.0547 210.906 27.0547C209.917 27.0547 209.023 26.8906 208.227 26.5625C207.43 26.2292 206.799 25.7578 206.336 25.1484C205.878 24.5391 205.648 23.8411 205.648 23.0547C205.648 22.2682 205.878 21.5729 206.336 20.9688C206.799 20.3594 207.43 19.888 208.227 19.5547C209.023 19.2214 209.917 19.0547 210.906 19.0547ZM210.906 20.4609C210.219 20.4557 209.604 20.5599 209.062 20.7734C208.521 20.987 208.096 21.2917 207.789 21.6875C207.487 22.0833 207.336 22.5391 207.336 23.0547C207.336 23.5755 207.487 24.0312 207.789 24.4219C208.096 24.8073 208.521 25.1068 209.062 25.3203C209.604 25.5286 210.219 25.6328 210.906 25.6328C211.589 25.6328 212.198 25.5286 212.734 25.3203C213.271 25.1068 213.69 24.8073 213.992 24.4219C214.299 24.0312 214.453 23.5755 214.453 23.0547C214.453 22.5391 214.299 22.0833 213.992 21.6875C213.69 21.2917 213.271 20.987 212.734 20.7734C212.198 20.5599 211.589 20.4557 210.906 20.4609ZM217.383 30.6172H204.477V29.1953H217.383V30.6172ZM231.211 30.75H218.305V29.3203H231.211V30.75ZM225.578 29.9297H223.867V26.5312H225.578V29.9297ZM229.672 23.7656H221.562V26.3281H219.828V22.3984H227.961V20.6328H219.805V19.2266H229.672V23.7656ZM230.008 27.0078H219.828V25.5938H230.008V27.0078ZM247 32.3672H245.266V18.2656H247V32.3672ZM249.094 25.2266H246.555V23.7891H249.094V25.2266ZM243.273 19.7422C243.273 21.1797 243.057 22.5182 242.625 23.7578C242.198 24.9922 241.508 26.1276 240.555 27.1641C239.602 28.1953 238.367 29.0885 236.852 29.8438L235.875 28.5C237.151 27.8542 238.208 27.1172 239.047 26.2891C239.891 25.4609 240.521 24.5312 240.938 23.5C241.354 22.4635 241.562 21.3125 241.562 20.0469V19.7422H243.273ZM242.445 21.1719H236.609V19.7422H242.445V21.1719ZM261.523 25.8516H259.781V18.2656H261.523V25.8516ZM253.898 27.9453H259.789V26.5H261.523V32.2109H252.188V26.5H253.898V27.9453ZM259.789 30.8047V29.3047H253.898V30.8047H259.789ZM253.828 18.8906C254.552 18.8854 255.201 19.0208 255.773 19.2969C256.352 19.5729 256.805 19.9661 257.133 20.4766C257.466 20.9818 257.633 21.5573 257.633 22.2031C257.633 22.8281 257.466 23.3906 257.133 23.8906C256.805 24.3906 256.352 24.7812 255.773 25.0625C255.201 25.3438 254.552 25.487 253.828 25.4922C253.104 25.487 252.453 25.3438 251.875 25.0625C251.302 24.7812 250.849 24.3906 250.516 23.8906C250.188 23.3906 250.023 22.8281 250.023 22.2031C250.023 21.5573 250.188 20.9818 250.516 20.4766C250.849 19.9661 251.302 19.5729 251.875 19.2969C252.453 19.0208 253.104 18.8854 253.828 18.8906ZM253.828 20.3438C253.417 20.3333 253.052 20.4062 252.734 20.5625C252.417 20.7188 252.167 20.9375 251.984 21.2188C251.807 21.5 251.719 21.8281 251.719 22.2031C251.719 22.5729 251.807 22.8984 251.984 23.1797C252.167 23.4557 252.417 23.6719 252.734 23.8281C253.052 23.9792 253.417 24.0573 253.828 24.0625C254.234 24.0573 254.596 23.9792 254.914 23.8281C255.232 23.6719 255.477 23.4557 255.648 23.1797C255.826 22.8984 255.914 22.5729 255.914 22.2031C255.914 21.8281 255.826 21.5 255.648 21.2188C255.471 20.9375 255.224 20.7188 254.906 20.5625C254.594 20.4062 254.234 20.3333 253.828 20.3438Z" fill="white"/>
<rect x="3.125" y="3" width="44.7551" height="43" rx="3" fill="white"/>
<path d="M42.5705 24.8883C42.5705 23.6772 42.4574 22.5126 42.2473 21.3946H25.5039V28.0017H35.0716C34.6594 30.1367 33.4069 31.9457 31.5241 33.1569V37.4426H37.2695C40.6311 34.469 42.5705 30.0901 42.5705 24.8883Z" fill="#4285F4"/>
<path d="M25.504 41.5807C30.304 41.5807 34.3282 40.0512 37.2696 37.4425L31.5242 33.1569C29.9323 34.1817 27.8959 34.7873 25.504 34.7873C20.8737 34.7873 16.9545 31.7827 15.5566 27.7455H9.61719V32.1709C12.5424 37.7531 18.5545 41.5807 25.504 41.5807Z" fill="#34A853"/>
<path d="M15.5568 27.7455C15.2013 26.7206 14.9993 25.6259 14.9993 24.5002C14.9993 23.3744 15.2013 22.2797 15.5568 21.2549V16.8294H9.61747C8.41343 19.1353 7.72656 21.744 7.72656 24.5002C7.72656 27.2563 8.41343 29.865 9.61747 32.1709L15.5568 27.7455Z" fill="#FBBC05"/>
<path d="M25.504 14.213C28.1141 14.213 30.4575 15.0748 32.2999 16.7673L37.3989 11.8683C34.3201 9.11211 30.2959 7.41959 25.504 7.41959C18.5545 7.41959 12.5424 11.2472 9.61719 16.8294L15.5566 21.2548C16.9545 17.2176 20.8737 14.213 25.504 14.213Z" fill="#EA4335"/>
</svg>
