<svg width="260" height="70" viewBox="0 0 260 70" fill="none" xmlns="http://www.w3.org/2000/svg">
<path d="M56.8 69H42.304V39.432H15.136V69H0.64V0.455996H15.136V27.336H42.304V0.455996H56.8V69ZM115.998 69L111.006 52.68H86.0463L81.0543 69H65.4062L89.5983 0.167999H107.358L131.646 69H115.998ZM102.558 24.552C102.238 23.464 101.822 22.088 101.31 20.424C100.798 18.76 100.286 17.064 99.7743 15.336C99.2623 13.608 98.8463 12.104 98.5263 10.824C98.2063 12.104 97.7583 13.704 97.1823 15.624C96.6703 17.48 96.1583 19.272 95.6463 21C95.1983 22.664 94.8463 23.848 94.5903 24.552L89.6943 40.488H107.55L102.558 24.552ZM160.296 0.455996C166.504 0.455996 171.624 1.224 175.656 2.75999C179.688 4.23199 182.696 6.504 184.68 9.576C186.664 12.584 187.656 16.392 187.656 21C187.656 24.136 187.048 26.888 185.832 29.256C184.68 31.56 183.112 33.544 181.128 35.208C179.208 36.808 177.128 38.12 174.888 39.144L195.048 69H178.92L162.6 42.696H154.824V69H140.328V0.455996H160.296ZM159.24 12.36H154.824V30.888H159.528C162.728 30.888 165.32 30.536 167.304 29.832C169.288 29.128 170.728 28.072 171.624 26.664C172.52 25.192 172.968 23.432 172.968 21.384C172.968 19.208 172.456 17.48 171.432 16.2C170.472 14.856 168.968 13.896 166.92 13.32C164.936 12.68 162.376 12.36 159.24 12.36ZM259.479 44.808C259.479 49.544 258.423 53.832 256.311 57.672C254.263 61.448 251.127 64.456 246.903 66.696C242.743 68.872 237.463 69.96 231.063 69.96C221.975 69.96 215.063 67.656 210.327 63.048C205.591 58.376 203.223 52.232 203.223 44.616V0.455996H217.719V42.408C217.719 48.04 218.871 52.008 221.175 54.312C223.479 56.616 226.903 57.768 231.447 57.768C234.647 57.768 237.239 57.224 239.223 56.136C241.207 55.048 242.647 53.352 243.542 51.048C244.503 48.744 244.983 45.832 244.983 42.312V0.455996H259.479V44.808Z" fill="black"/>
</svg>
